{"title":"David Guetta Ft. Nicki Minaj - Turn Me On (h264/mp4)","uid":7009195,"size":59527402,"categoryP":"video","categoryS":"music_videos","magnet":"?xt=urn:btih:19d3f1b597825b51407909bd4e1cc80c0e32c31c&amp;dn=David+Guetta+Ft.+Nicki+Minaj+-+Turn+Me+On+%28h264%2Fmp4%29&amp;tr=udp%3A%2F%2Ftracker.openbittorrent.com%3A80&amp;tr=udp%3A%2F%2Fopen.demonii.com%3A1337&amp;tr=udp%3A%2F%2Ftracker.coppersurfer.tk%3A6969&amp;tr=udp%3A%2F%2Fexodus.desync.com%3A6969","seeders":1,"leechers":1,"uploader":"MusicVideos-HQ","files":1,"time":1328376642,"description":"General\n\nFormat : MPEG-4\nFormat profile : Base Media\nCodec ID : isom\nFile size : 56.8 MiB\nDuration : 3mn 30s\nOverall bit rate : 2 267 Kbps\nEncoded date : UTC 2012-02-03 16:37:20\nTagged date : UTC 2012-02-03 16:37:20\n\nVideo\nID : 1\nFormat : AVC\nFormat/Info : Advanced Video Codec\nFormat profile : &lt;a class=&quot;__cf_email__&quot; href=&quot;/cdn-cgi/l/email-protection&quot; data-cfemail=&quot;773f1e101f373b445947&quot;&gt;[email&amp;#160;protected]&lt;/a&gt;&lt;script cf-hash='f9e31' type=&quot;text/javascript&quot;&gt;\n/* &lt;![CDATA[ */!function(){try{var t=&quot;currentScript&quot;in document?document.currentScript:function(){for(var t=document.getElementsByTagName(&quot;script&quot;),e=t.length;e--;)if(t[e].getAttribute(&quot;cf-hash&quot;))return t[e]}();if(t&amp;&amp;t.previousSibling){var e,r,n,i,c=t.previousSibling,a=c.getAttribute(&quot;data-cfemail&quot;);if(a){for(e=&quot;&quot;,r=parseInt(a.substr(0,2),16),n=2;a.length-n;n+=2)i=parseInt(a.substr(n,2),16)^r,e+=String.fromCharCode(i);e=document.createTextNode(e),c.parentNode.replaceChild(e,c)}}}catch(u){}}();/* ]]&gt; */&lt;/script&gt;\nFormat settings, CABAC : Yes\nFormat settings, ReFrames : 2 frames\nCodec ID : avc1\nCodec ID/Info : Advanced Video Coding\nDuration : 3mn 30s\nBit rate mode : Variable\nBit rate : 2 276 Kbps\nMaximum bit rate : 3 676 Kbps\nWidth : 720 pixels\nHeight : 480 pixels\nDisplay aspect ratio : 16:9\nOriginal display aspect ratio : 16:9\nFrame rate mode : Constant\nFrame rate : 29.970 fps\nStandard : NTSC\nColor space : YUV\nChroma subsampling : 4:2:0\nBit depth : 8 bits\nScan type : Progressive\nBits/(Pixel*Frame) : 0.220\nStream size : 54.8 MiB (96%)\n\n\nAudio\nID : 2\nFormat : AAC\nFormat/Info : Advanced Audio Codec\nFormat profile : LC\nCodec ID : 40\nDuration : 3mn 29s\nBit rate mode : Variable\nBit rate : 72.0 Kbps\nMaximum bit rate : 83.1 Kbps\nChannel(s) : 2 channels\nChannel positions : Front: L R\nSampling rate : 44.1 KHz\nCompression mode : Lossy\nStream size : 1.80 MiB (3%) ","torrent":{"xt":"urn:btih:19d3f1b597825b51407909bd4e1cc80c0e32c31c","amp;dn":"David+Guetta+Ft.+Nicki+Minaj+-+Turn+Me+On+%28h264%2Fmp4%29","amp;tr":["udp%3A%2F%2Ftracker.openbittorrent.com%3A80","udp%3A%2F%2Fopen.demonii.com%3A1337","udp%3A%2F%2Ftracker.coppersurfer.tk%3A6969","udp%3A%2F%2Fexodus.desync.com%3A6969"],"infoHash":"19d3f1b597825b51407909bd4e1cc80c0e32c31c","infoHashBuffer":{"type":"Buffer","data":[25,211,241,181,151,130,91,81,64,121,9,189,78,28,200,12,14,50,195,28]},"announce":[],"urlList":[]}}